<svg t="1706434051224" class="icon" viewBox="0 0 1024 1024" version="1.1" xmlns="http://www.w3.org/2000/svg" p-id="7019" width="128" height="128"><path d="M85.312 768H384v85.312H85.312V768z m0-298.688h384v85.376h-384v-85.376z m0-298.624h853.376V256H85.312v-85.312z m796.8 385.024l49.28-16.64 42.688 73.856-39.04 34.368a171.328 171.328 0 0 1 0 70.72l39.04 34.368-42.688 73.92-49.28-16.704a170.56 170.56 0 0 1-61.248 35.392L810.624 896h-85.312l-10.24-51.008a170.56 170.56 0 0 1-61.184-35.392l-49.28 16.64-42.688-73.856 39.04-34.368a171.2 171.2 0 0 1 0-70.72l-39.04-34.368 42.688-73.856 49.28 16.64a171.381 171.381 0 0 1 61.248-35.392l10.24-51.008h85.312l10.24 51.008a171.66 171.66 0 0 1 61.184 35.392zM768 768a85.312 85.312 0 1 0 0-170.688A85.312 85.312 0 0 0 768 768z" fill="#ffffff" p-id="7020"></path></svg>