<svg t="1706345392495" class="icon" viewBox="0 0 1024 1024" version="1.1" xmlns="http://www.w3.org/2000/svg" p-id="3518" width="128" height="128"><path d="M675.4 769.5H366.3V213.1c0-85.4 69.2-154.6 154.6-154.6 85.4 0 154.6 69.2 154.6 154.6v556.4z m0 0" fill="#EEAC38" p-id="3519"></path><path d="M520.9 58.5c-85.4 0-154.6 69.2-154.6 154.6v556.4h154.6v-711z m0 0" fill="#F0BB5D" p-id="3520"></path><path d="M613.6 877.7H428.1V460.4l92.7-185.5 92.7 185.5v417.3z m0 0" fill="#206BAB" p-id="3521"></path><path d="M520.9 274.9l-92.8 185.5v417.3h92.7l0.1-602.8" fill="#74A2CA" p-id="3522"></path><path d="M520.9 274.9l-46.6 93.2 93-0.4-46.4-92.8z m46.3 231.9h-92.7v-30.9c0-25.6 20.8-46.4 46.4-46.4 25.6 0 46.4 20.8 46.4 46.4v30.9z m0 0" fill="#FFFFFF" p-id="3523"></path><path d="M366.3 785H211.7V383.1c0-42.7 34.6-77.3 77.3-77.3 42.7 0 77.3 34.6 77.3 77.3V785z m0 0" fill="#F0BB5D" p-id="3524"></path><path d="M211.7 785h154.6v154.6H211.7z" fill="#74A2CA" p-id="3525"></path><path d="M830 785H675.4V383.1c0-42.7 34.6-77.3 77.3-77.3s77.3 34.6 77.3 77.3V785z m0 0" fill="#EEAC38" p-id="3526"></path><path d="M675.4 785H830v154.6H675.4z" fill="#206BAB" p-id="3527"></path><path d="M428.1 521.8l-92.7 355.9h92.7V521.8z m185.5 8.5l92.7 347.5h-92.7V530.3z m0 0" fill="#FFFFFF" p-id="3528"></path><path d="M582.3 521.8H459.5v-45.9c0-33.9 27.5-61.4 61.4-61.4s61.4 27.5 61.4 61.4v45.9z m-92.8-30.1h62.7v-15.9c0-17.3-14.1-31.3-31.3-31.3-17.3 0-31.3 14.1-31.3 31.3v15.9z m-61.4 417.4h185.5v30.1H428.1z m46.4 46.3h92.7v30.1h-92.7zM196.3 970.9h185.5v30.1H196.3z m463.7 0h185.5v30.1H660zM443.6 182.6h30.9v30.1h-30.9z m61.8 0h30.9v30.1h-30.9z m61.8 0h30.9v30.1h-30.9zM273.6 368.1h30.9v30.1h-30.9z" fill="#1C1C1A" p-id="3529"></path><path d="M752.7 290.8c-24 0-45.8 9.2-62.3 24.2V213.1c0-88.4-68.1-161.2-154.6-168.9v-32h-30.1v32c-86.5 7.6-154.6 80.4-154.6 168.9V315c-16.4-15-38.3-24.2-62.3-24.2-50.9 0-92.3 41.4-92.3 92.3v571.5h184.6v-61.8h279.1v61.8H845V383.1c0-50.9-41.4-92.3-92.3-92.3zM351.3 924.5H226.8V800h113.4L316 892.7h35.3v31.8z m0-167.2L348 770H226.8V398.1h15.9V368h-14c6.7-27.1 31.3-47.2 60.4-47.2 29.1 0 53.7 20.1 60.4 47.2h-14v30.1h15.9l-0.1 359.2z m61.8 105.4h-58.3l58.3-223.3v223.3z m0-342.4l-31.8 121.8V212.7h31.3v-30.1h-28c13.9-62.3 69.7-109.1 136.2-109.1 66.5 0 122.2 46.7 136.1 109.1H629v30.1h31.3v429.4l-31.8-121.8v-44.4c0-53.9-85.3-193.2-95-208.9l-12.8-20.6-12.6 20.6c-9.7 15.7-95 154.9-95 208.8v44.5z m135.2-167.7h-54.9c10.2-18.8 20-35.9 27.4-48.5 7.5 12.6 17.3 29.7 27.5 48.5zM598.6 569h-31.3v30.1h31.3v31.8h-31.3V661h31.3v31.8h-31.3v30.1h31.3v23.8h-31.3v30.1h31.3V863H443.2v-86.2h31.3v-30.1h-31.3v-25.6h31.3V691h-31.3v-32h31.3v-30h-31.3v-31.8h31.3v-30.1h-31.3v-91.3c0-9.6 4.8-34 34.6-93.2H564c29.8 59.1 34.6 83.6 34.6 93.2V569z m30 293.7V639.4l58.3 223.3h-58.3zM815 924.5H690.5v-31.8h35.3L701.6 800H815v124.5z m0-154.5H693.8l-3.3-12.7V398.1h15.9V368h-14c6.7-27.1 31.3-47.2 60.4-47.2 29.1 0 53.7 20.1 60.4 47.2h-14v30.1H815V770z m0 0" fill="#1C1C1A" p-id="3530"></path><path d="M737.3 368.1h30.9v30.1h-30.9z" fill="#1C1C1A" p-id="3531"></path></svg>