<svg t="1706795254256" class="icon" viewBox="0 0 1024 1024" version="1.1" xmlns="http://www.w3.org/2000/svg" p-id="8080" width="128" height="128"><path d="M207.018667 704.128a358.016 358.016 0 0 0 299.178666 159.957333c197.034667 0 356.736-157.44 356.736-351.616 0-172.330667-125.866667-315.989333-292.266666-345.898666 9.813333 35.968 14.805333 73.386667 14.805333 111.445333 0 218.197333-164.864 398.336-378.453333 426.112z m-63.573334-74.496h6.016c197.034667 0 356.693333-157.354667 356.693334-351.573333 0-49.066667-10.154667-96.64-29.610667-140.586667a38.912 38.912 0 0 1 36.266667-54.698667h0.725333c237.696 3.882667 428.672 195.072 428.672 429.696 0 237.354667-195.2 429.738667-436.010667 429.738667-174.933333 0-330.922667-102.528-399.701333-257.877333a38.912 38.912 0 0 1 36.224-54.698667h0.725333z" fill="#000000" p-id="8081"></path></svg>