<svg t="1707306260696" class="icon" viewBox="0 0 1024 1024" version="1.1" xmlns="http://www.w3.org/2000/svg" p-id="3579" width="200" height="200"><path d="M444.4 308.6l77.5 66.5c5.6 4.8 14 4.5 19.2-0.8L723 188.4c1-1 2.7-0.3 2.7 1.1v32.9c0 10 8.1 18.7 18.7 18.7h27.3c10 0 18.7-8.1 18.7-18.7V87.5c0-10-8.1-18.7-18.7-18.7H638.3c-11.1 0-20.3 9.1-20.3 20.3v25.7c0 5.3 1.9 10 5.3 13.4 3.8 3.8 8.1 5.7 13.4 5.7h33c1.4 0 2.1 1.7 1.1 2.7L532.3 275.1c-3.8 3.8-9.8 4-13.8 0.5l-71-60.7c-8-6.9-20-6.4-27.5 1.1l-3 3-0.5-0.5-265.8 266c-4.6 4.6-4.6 11.9 0 16.5l37.9 37.9c3.3 3.3 8.7 3.3 12 0l229.8-229.8c3.8-3.8 9.9-4.1 14-0.5zM922.3 866.5h-66c-0.9 0-1.6-0.7-1.6-1.6v-497c0-5.4-1.1-10.5-3-15.2-5.2-14.3-19-24.5-35.1-24.5H719c-14.6 0-27.2 8.4-33.3 20.6-3.1 5.7-4.9 12.2-4.9 19.1v497c0 0.9-0.7 1.6-1.6 1.6h-82c-0.9 0-1.6-0.7-1.6-1.6V539.3c0-21.5-17.4-38.9-38.9-38.9h-93.9c-21.5 0-38.9 17.4-38.9 38.9v325.5c0 0.9-0.7 1.6-1.6 1.6h-82.9c-0.9 0-1.6-0.7-1.6-1.6V711.6c0-21.5-17.4-38.9-38.9-38.9H205c-21.5 0-38.9 17.4-38.9 38.9v153.3c0 0.9-0.7 1.6-1.6 1.6H100c-11.1 0-20.3 9.1-20.3 20.3V912.5c0 5.2 1.9 10 5.2 13.3l0.1 0.1c3.8 3.3 8.6 5.2 13.3 5.2H922.2c12 0 21.9-9.8 21.9-21.9v-20.9c0.1-12-9.8-21.8-21.8-21.8z" p-id="3580" fill="#1296db"></path></svg>