<svg t="1706799864852" class="icon" viewBox="0 0 1024 1024" version="1.1" xmlns="http://www.w3.org/2000/svg" p-id="9934" width="128" height="128"><path d="M853.270059 57.08002c-115.572202 151.075811-33.167401 251.991198-215.07952 420.776346-28.244274 26.200732-34.336016 17.452487-21.559015-28.161387-9.56075 44.293809-2.13257 44.313252 23.581068 19.227923 3.959172-18.906605 6.878664-41.815361 7.404644-63.645552-2.653433 5.659907-4.956895 13.960966-6.581905 22.592554 0.919952-21.051455 7.67582-41.122583 25.462928-37.736463-1.89721-12.762675-0.976234-60.012815 9.230222-42.315758 0-36.739762-20.327978-45.809325-22.239514-85.910649 2.376117-2.51938 3.993964 4.38589 6.890944 12.07092l7.054673 2.12643-5.65479-6.67912c-3.192715-16.190751-0.837064-26.550703 4.341888-42.544979l10.331299 2.336208 4.722558 4.204765-3.821025-7.227612-11.465123-3.479241-6.001691 10.209526 2.24411-10.002818 9.224082-10.283204 5.54325-0.821715-6.205329-2.018983-9.866718 10.635221-3.110851 10.042727 1.952468-12.026918 6.228865-11.658528 4.910846-1.217734-5.984295-0.997724-7.483438 12.111852-4.966105 14.579043c0.107447 9.851369-5.288446 19.546172-7.684006 29.320793-0.14224 22.248723 4.084015 56.747445 10.755971 84.290755-8.17417 8.264221-16.864086 15.47546-22.115694 27.446096 2.987031-8.335852 8.195659-16.312524 11.036357-19.171642-2.924609-19.334347-8.067746-37.400818-15.793708-53.383838-41.037648-84.966137-133.337821-58.657958-168.830173 13.782911-3.536546 2.402723-6.898107 4.854565-10.058077 7.313569 7.314593-22.790052 18.362206-44.671409 30.863938-66.186422-16.416901 21.509896-30.153764 44.858674-39.935548 70.945819 4.947685-30.072923 16.910135-59.100026 31.223119-87.776136-17.36039 26.26827-31.114648 54.597479-39.297005 86.11838 1.636267-34.56933 13.090133-68.607564 27.575032-102.487186-22.361287 38.98592-37.459147 81.344656-39.736003 129.647779-7.553023 11.466146-9.041934 20.591991-3.547803 23.865547 12.344143 7.372921 1.362021 41.396829-10.147104 42.243103-9.420557 0.689708-6.912433 8.27957-3.146667 13.798261 5.434779 7.988951 14.274098 5.666046 18.541285 7.267521 7.606235-34.794457 17.553795-55.024198 28.958542-66.032926-22.484084 38.405705-3.432169 140.595109-52.79646 116.687606 59.518558 38.113039 33.456996-97.898681 71.619154-115.242697 0.067538-0.583285 0.127913-1.164522 0.188288-1.727341 0.785899 27.64871-13.826913 51.454906-23.989367 76.977185 1.675152 1.199315 6.031367 13.216 21.88545 10.470469-3.686972-2.407839-11.437493 0.156566-7.561209-11.149944 7.575536-22.104437 21.25407-49.953715 34.113959-59.145052-6.490831-7.892761-9.970072-20.531616-8.486278-34.478256 5.320169-60.08547 74.086345-91.00262 101.533464-34.205033 10.100032 20.910239 8.198729 59.95551-3.77907 100.30038-4.172019 14.066367-8.868995 26.817786-14.125719 38.567387 4.7727-14.282285 9.327436-27.079752 11.895935-38.10383-9.381671 5.41943-24.367991 18.538215-37.519522 37.276998-21.169135-5.276167-41.141002-10.876722-57.522088-7.763824-6.885827 4.470825-13.317307 12.945847-20.591991 14.08581l-10.086729 8.540514-7.938809 11.577686 1.512447 7.852852 0.254803-6.714935 7.774057-9.840112 8.604982-4.174066-6.987135 5.459339-6.544043 14.558577 2.301416 8.008394-0.127913-7.498788 6.371104-13.653975 7.074116-4.304026-6.736425 9.345856 4.065596 14.8318 5.834892 4.155646-3.716648-5.752004-3.082198-13.470803c11.102872-9.010211 18.430768-13.512758 30.779004-11.382235l5.65786 6.667863-2.485611-9.125845c-6.04467-2.856048-11.348466-4.113691-9.806343-7.614421 29.7997-2.708692 39.154765 23.217794 66.227354 18.398022-8.634658-6.779404 0.419556-12.161994 11.117199-15.20326-3.360538 6.783497-7.011694 13.426801-10.929934 19.808138-3.15997 5.140067-6.371104 9.981329-9.605775 14.609743-89.11769 35.113729-194.415898 63.847144-167.889755-104.325044 20.292162-128.709407 46.034453-135.929856 9.619078-256.983909 0 161.046906-236.3121-42.727127-329.767586-75.238588 69.838601 61.138452 158.487617 321.657884 9.512654 428.203502 120.955816-5.343705 203.648167-11.354606 162.741501 170.896228 59.272965-110.651123 106.630552-127.501906 129.460514-47.435359 36.042891-53.348022 68.287269-56.296167 103.928001-41.150212 18.969027-9.071609 37.942147-20.09671 56.914244-34.006512-16.839527 16.123212-34.599006 27.092032-51.90516 36.367279-23.24747 12.455683-43.965328 28.239158-57.125045 56.189743-24.26259-8.008394-46.913473 45.555545-44.592614 100.380198-29.336142-25.270547-56.738235-50.037626-82.702584-58.808384-12.350283 1.063215-25.826202 8.492418-37.249369 4.237511l-18.99461 4.53734-17.139356 10.834766-1.279133 13.017478 3.420913-9.861602 16.1007-8.374738 14.791891 0.793062-12.94994 2.451842-16.400528 16.45681-0.172939 13.896498 3.204995-11.340279 15.72617-15.245216 12.55699-0.657986-14.32731 8.486278-0.62524 25.578562 6.865361 10.992355-2.967588-11.667737 1.485841-22.706141c20.719904-4.409426 33.745569-5.14416 51.285037 8.172123l5.463432 14.634302 0.411369-15.725146c-7.769964-9.239432-15.154141-15.461133-11.258415-19.442818 45.902446 20.37198 48.179302 66.896596 90.944292 81.864496-9.475815-16.555048 6.453992-17.809621 23.027459-14.152325-0.808412-23.36822 0.063445-46.358841 3.390213-68.793806-4.311189 52.849672 0.539282 97.205902 13.474896 148.012032 24.388457-26.40437 50.592258-50.04172 78.57866-69.009723 2.020006-15.44783 7.957229-41.943274 12.295024-55.530734-6.088672 6.215562-13.429871 14.609743-22.005176 33.500998 25.66145-89.223091 88.73702-28.806069 61.720713-5.653767 42.957371 13.916964 61.271482-25.664519 108.881826-14.514575 2.043542 5.988388-6.647397 6.78759-16.73515 10.011005l-5.146207 14.126742 9.948583-9.442046c20.128433-0.621147 31.357172 8.293897 48.087205 25.320689l-6.647397 20.969591-6.705726 8.414647 9.907651-5.351891 8.408507-22.950711-9.66308-16.572444 10.847046 8.549723 8.526187 23.414269-1.146103 12.034081 4.717442-12.355399-8.698103-24.919553-10.56359-10.384511 13.328563 8.689916 11.265578 17.593703-0.435928 10.866489 3.427052-12.294001-11.317767-20.424168-15.162328-16.047488c-11.561313-3.497661-20.844747-18.605753-31.369452-27.367301-25.960255-8.738012-52.707432-7.972579-87.433328-4.288676 16.812921-54.882981 13.211906-78.974679-6.407943-85.10019-13.101389 8.322549-25.545816 21.497617-37.20332 37.762045 24.263613-46.734394 111.792109-108.396779 81.496106 3.417843 47.445592-113.607454 76.948533-108.302635 52.191686 23.412223 107.35403-252.207116 183.140087 30.109762 17.397229 252.826216C1258.245534 463.504496 731.02897 325.447187 853.270059 57.08002z" fill="#f4ea2a" p-id="9935"></path><path d="M470.895325 291.387463c27.042913-38.621623 107.453291-89.995687 160.254867 6.864338-9.371438-28.589129-6.291287-45.405119 10.889001-40.827871-14.390755-15.207353-26.687826 1.576915-34.031071-4.738931-10.311857-8.874111 2.242064-20.62269 12.56006-19.428491-24.503067-12.667507-29.92045 10.570753-39.390125 7.247054-4.078899-1.425466-9.677407-15.945157 1.533936-25.911136-15.943111-0.432859-19.047822 20.517289-26.794249 18.834974-7.739265-1.677199-10.281157-12.828167-4.502547-23.352871-17.815761 11.487635-10.719132 24.069185-19.235087 27.931143-8.512884 3.868097-8.940626-7.388271-5.063319-17.370623-10.585079 7.286963-12.149714 24.551162-14.956643 25.850761-2.814092 1.295506-4.737908 0.6191-2.335185-11.558244-7.785314 6.980995-7.785314 18.874883-10.083659 21.73707-2.290159 2.870374-7.161097 1.153266-5.592368-7.448646-6.655584 8.012488-5.003967 14.907525-7.28287 17.423835-2.284019 2.508123-5.009084-0.215918-4.29277-7.624654C476.633003 268.085758 476.835617 277.852192 470.895325 291.387463z" fill="#f4ea2a" p-id="9936"></path><path d="M545.008276 759.836575c-46.577828 5.434779-91.891873 46.006823-133.621277 87.572498C304.889477 953.499319 235.568668 835.688123 257.890047 757.756193c10.217712-35.673477 41.787732 105.941867 91.732238 27.906583-55.694463 61.549821-74.011644-95.089705-101.919251-47.313585C188.901813 839.011822 280.205285 1018.455727 435.297572 921.126005c20.487613-18.004049 36.610826-39.422871 47.997154-51.821249 16.21531-17.656125 38.287001-28.466332 67.775616-32.689517 26.461675-3.787256 42.057885-2.288113 49.443086 2.230808-0.470721 1.00284 10.463306 2.921539 7.040347 38.10383-1.028423-23.054065-3.588735-31.114648-9.066493-34.190707-26.320459 39.489386-78.226642 48.353264-113.267716 28.631084-13.46057 18.113543-28.708855 37.488823-46.838771 51.836599 10.154267 10.726296 23.692608 20.374026 41.126676 26.88737 60.633962 22.666232 117.871571-3.729951 149.356656-39.730886 14.132882-16.161075 24.022113-35.278481 28.146037-54.537104 5.553483-25.954115 1.694595-50.743708-13.879102-70.390163C626.671181 764.697279 595.260797 753.981217 545.008276 759.836575z" fill="#f4ea2a" p-id="9937"></path></svg>