<svg t="1706444052551" class="icon" viewBox="0 0 1024 1024" version="1.1" xmlns="http://www.w3.org/2000/svg" p-id="14890" width="128" height="128"><path d="M937.52 65.44A31.89 31.89 0 0 0 928 64h-91.5a127.88 127.88 0 0 0-85 32.33L512 309.19 272.54 96.33l-0.13-0.11-0.52-0.47-1-0.88A127.86 127.86 0 0 0 187.5 64H96a32 32 0 0 0-32 32v832a32 32 0 0 0 32 32h256a32 32 0 0 0 32-32V601l106.74 94.88a32 32 0 0 0 42.52 0L640 601v327a32 32 0 0 0 32 32h256a32 32 0 0 0 32-32V96a32 32 0 0 0-22.48-30.56zM192 896h-64V128h59.5c1.55 0 3.09 0.06 4.63 0.17-0.09 1.14-0.13 2.3-0.13 3.46z m128 0h-64V167.26l234.74 208.66a32 32 0 0 0 7.63 5q-15.19 24.68-29.08 50.26l-96-85.36A32 32 0 0 0 320 369.78z m64-455l73.42 65.26a32 32 0 0 0 50-9.53l2.58-5.23a987.52 987.52 0 0 1 228.25-297.8L794 144.17A63.92 63.92 0 0 1 836.5 128h43.33l-84.9 75.47a1051.24 1051.24 0 0 0-242.93 317l-49.94 99.87L384 515.41z m320 455V544.15l64-56.89V896z m192 0h-64V416a32 32 0 0 0-53-24.1l-0.22 0.18-163.67 145.45A987.37 987.37 0 0 1 837.45 251.3l58.55-52z" fill="#d81e06" p-id="14891"></path></svg>