<svg width="32" height="32" viewBox="0 0 32 32" fill="none" xmlns="http://www.w3.org/2000/svg">
<path d="M15.6665 4C14.0415 4 12.6353 4.59375 11.4478 5.78125C10.2603 6.96875 9.6665 8.375 9.6665 10V13C8.82275 13 8.11182 13.2891 7.53369 13.8672C6.95557 14.4453 6.6665 15.1562 6.6665 16V25C6.6665 25.8438 6.95557 26.5547 7.53369 27.1328C8.11182 27.7109 8.82275 28 9.6665 28H21.6665C22.5103 28 23.2212 27.7109 23.7993 27.1328C24.3774 26.5547 24.6665 25.8438 24.6665 25V16C24.6665 15.1562 24.3774 14.4453 23.7993 13.8672C23.2212 13.2891 22.5103 13 21.6665 13V10C21.6665 8.375 21.0728 6.96875 19.8853 5.78125C18.6978 4.59375 17.2915 4 15.6665 4ZM22.6509 16V25C22.6509 25.6562 22.3228 25.9844 21.6665 25.9844H9.6665C9.01025 25.9844 8.68213 25.6562 8.68213 25V16C8.68213 15.3438 9.01025 15.0156 9.6665 15.0156H21.6665C22.3228 15.0156 22.6509 15.3438 22.6509 16ZM11.6821 13V10C11.6821 8.90625 12.0728 7.96875 12.854 7.1875C13.6353 6.40625 14.5728 6.01562 15.6665 6.01562C16.7603 6.01562 17.6978 6.40625 18.479 7.1875C19.2603 7.96875 19.6509 8.90625 19.6509 10V13H11.6821ZM15.6665 16C14.8228 16 14.1118 16.2891 13.5337 16.8672C12.9556 17.4453 12.6665 18.1562 12.6665 19C12.6665 19.625 12.854 20.1953 13.229 20.7109C13.604 21.2266 14.0884 21.5938 14.6821 21.8125V22.9844C14.6821 23.6719 15.0103 24.0156 15.6665 24.0156C16.3228 24.0156 16.6509 23.6719 16.6509 22.9844V21.8125C17.9946 21.3438 18.6665 20.4062 18.6665 19C18.6665 18.1562 18.3774 17.4453 17.7993 16.8672C17.2212 16.2891 16.5103 16 15.6665 16ZM15.6665 19.9844C15.0103 19.9844 14.6821 19.6562 14.6821 19C14.6821 18.3438 15.0103 18.0156 15.6665 18.0156C16.3228 18.0156 16.6509 18.3438 16.6509 19C16.6509 19.6562 16.3228 19.9844 15.6665 19.9844Z" fill="#333333"/>
</svg>
