<svg t="1706795328163" class="icon" viewBox="0 0 1024 1024" version="1.1" xmlns="http://www.w3.org/2000/svg" p-id="8236" width="128" height="128"><path d="M838.435866 511.498677c0-44.713735-8.533156-87.592842-25.514135-128.594654a299.897752 299.897752 0 0 0-71.081186-104.616487 392.18383 392.18383 0 0 0-104.573821-70.569197c-39.380513-18.346284-82.088956-26.87944-128.125331-25.514135-46.07904 1.322639-88.744818 9.813129-128.125331 25.514135a297.636466 297.636466 0 0 0-104.616487 70.569197 358.904523 358.904523 0 0 0-71.03852 104.616487c-17.066311 38.3992-25.556801 81.064978-25.556801 128.125331 0 47.017687 8.533156 89.726131 25.556801 128.12533 16.98098 38.3992 40.703152 73.214475 71.03852 104.573822a297.5938 297.5938 0 0 0 104.616487 70.569196 372.770901 372.770901 0 0 0 128.125331 25.556801c46.07904 1.279973 88.744818-7.210516 128.125331-25.556801a392.567822 392.567822 0 0 0 104.573821-70.569196 299.684423 299.684423 0 0 0 71.081186-104.573822 330.147789 330.147789 0 0 0 25.514135-127.613341z m157.180725 158.162038a15.573009 15.573009 0 0 1-11.050436 12.03175l-167.121852 54.014874v175.185684c0 5.973209-2.517281 10.837108-7.509177 14.506365a15.615675 15.615675 0 0 1-15.530343 2.51728l-167.121851-54.05754-103.123185 142.119706a18.09029 18.09029 0 0 1-15.018354 8.021166 15.65834 15.65834 0 0 1-13.994375-8.021166l-104.104498-142.119706-167.164517 54.05754a15.615675 15.615675 0 0 1-15.530344-2.51728 17.151643 17.151643 0 0 1-7.509176-14.506365v-175.185684L33.716631 681.692465a15.573009 15.573009 0 0 1-11.050437-12.03175c-2.005292-6.655861-1.322639-12.373076 2.005292-17.023645l102.099206-141.138393L24.671486 369.378971A19.49826 19.49826 0 0 1 22.196871 352.867315 16.682319 16.682319 0 0 1 33.716631 341.347555l167.121852-55.038853V111.123018c0-5.973209 2.517281-10.837108 7.509176-14.506364a15.615675 15.615675 0 0 1 15.530344-2.517281l167.164517 54.05754 104.104498-142.119705A17.236974 17.236974 0 0 1 509.141393 0.021333c5.973209 0 11.007771 2.005292 15.018354 5.973209l103.123185 142.162371 167.121851-54.05754a15.615675 15.615675 0 0 1 15.530343 2.517281c4.991896 3.669257 7.509177 8.533156 7.509177 14.506364V286.308702L984.566155 341.347555a16.639653 16.639653 0 0 1 11.51976 11.51976c1.706631 5.674548 0.853316 11.178434-2.474615 16.511656l-102.099207 142.119706 102.099207 141.138393c3.327931 4.693236 4.010583 10.367784 2.005291 17.023645z" fill="yellow" p-id="8237"></path></svg>