<svg t="1706435252784" class="icon" viewBox="0 0 1024 1024" version="1.1" xmlns="http://www.w3.org/2000/svg" p-id="10810" width="128" height="128"><path d="M1001.594645 111.40754c-6.599945-3.999967-14.299882-6.09995-21.999818-6.09995-10.599912 0-20.799828 3.999967-28.599764 11.099908L729.796891 315.90585 549.098384 20.108294c-7.999934-12.699895-21.999818-20.299832-36.999695-20.099834C496.998814-0.291538 482.99893 7.408399 474.998996 20.108294l-180.798507 295.997554L72.802319 116.607497c-7.799936-6.999942-17.899852-10.999909-28.399766-11.099909-7.799936 0.099999-15.399873 2.199982-21.999818 6.199949-16.499864 10.399914-24.999793 29.599755-21.699821 48.699598L105.802046 792.001917c3.699969 22.299816 13.999884 37.599689 35.599706 37.599689h741.293875s1.699986 0.399997 4.099967 0.399997c8.099933 0 25.999785-4.099966 31.599739-38.099685L1023.294466 160.007138c3.299973-19.099842-5.199957-38.299684-21.699821-48.599598zM843.895948 746.602292H180.101432L97.502114 249.406399l143.298817 129.098934 71.499409 64.399468 50.399583-82.599318L511.99869 115.607505 661.497455 360.005486l50.499583 82.599317 71.39941-64.399468 143.198817-129.298931-82.699317 497.695888z m45.299626 194.298395H134.701807c-15.099875 0.199998-27.099776 12.599896-26.899778 27.599772V996.20023c0 15.399873 11.999901 27.699771 26.899778 27.699771h754.493767c15.099875-0.199998 27.099776-12.599896 26.899778-27.599772V968.600458c0.199998-15.099875-11.799903-27.499773-26.899778-27.699771 0.099999 0 0 0 0 0z" fill="#ffffff" p-id="10811"></path></svg>