<svg t="1706435188961" class="icon" viewBox="0 0 1024 1024" version="1.1" xmlns="http://www.w3.org/2000/svg" p-id="9760" width="128" height="128"><path d="M128 298.666667a42.666667 42.666667 0 0 1 42.666667 42.666666v512h682.666666V341.333333a42.666667 42.666667 0 1 1 85.333334 0v554.666667a42.666667 42.666667 0 0 1-42.666667 42.666667H128a42.666667 42.666667 0 0 1-42.666667-42.666667V341.333333a42.666667 42.666667 0 0 1 42.666667-42.666666z" fill="#ffffff" p-id="9761"></path><path d="M384 512a42.666667 42.666667 0 0 1 42.666667-42.666667h170.666666a42.666667 42.666667 0 1 1 0 85.333334h-170.666666a42.666667 42.666667 0 0 1-42.666667-42.666667zM0 128a42.666667 42.666667 0 0 1 42.666667-42.666667h938.666666a42.666667 42.666667 0 0 1 42.666667 42.666667v213.333333a42.666667 42.666667 0 0 1-42.666667 42.666667H42.666667a42.666667 42.666667 0 0 1-42.666667-42.666667V128z m85.333333 42.666667v128h853.333334V170.666667H85.333333z" fill="#ffffff" p-id="9762"></path></svg>