<svg t="1706511424612" class="icon" viewBox="0 0 1024 1024" version="1.1" xmlns="http://www.w3.org/2000/svg" p-id="7159" width="128" height="128"><path d="M129.06400666 981.41845434a85.120532 85.120532 0 0 1-85.120532-85.120532v-510.723192a85.120532 85.120532 0 0 1 85.120532-85.120532h510.723192a85.120532 85.120532 0 0 1 85.120532 85.120532v510.723192a85.120532 85.120532 0 0 1-85.120532 85.120532H129.06400666z m42.560266-127.680798h425.60266v-425.60266h-425.60266v425.60266z" fill="#ffffff" p-id="7160"></path><path d="M916.42892766 689.54014934a63.840399 63.840399 0 0 1-63.244555-55.243225L852.58852866 625.69975034v-389.000831a63.840399 63.840399 0 0 0-55.158105-63.244555l-8.682294-0.595844H410.38736466a63.840399 63.840399 0 0 1-8.682294-127.084954l8.682294-0.595844H788.74812966a191.521197 191.521197 0 0 1 191.095594 178.412635l0.425603 13.108562v389.000831a63.840399 63.840399 0 0 1-63.840399 63.840399z" fill="#ffffff" p-id="7161"></path></svg>