<svg t="1706432598484" class="icon" viewBox="0 0 1068 1024" version="1.1" xmlns="http://www.w3.org/2000/svg" p-id="10522" width="128" height="128"><path d="M692.560386 356.173913c24.7343-42.048309 24.7343-96.463768 0-138.512077C662.879227 173.140097 610.937198 148.405797 556.521739 160.772947c-4.94686 0-12.36715 4.94686-12.36715 9.89372-2.47343 4.94686-2.47343 12.36715 2.47343 17.314009l42.04831 66.782609-34.62802 22.26087-42.048309-66.782609c-2.47343-4.94686-9.89372-7.42029-14.84058-7.42029-4.94686 0-12.36715 2.47343-14.840579 7.42029-34.628019 44.521739-37.101449 103.884058-7.42029 150.879227 27.207729 42.048309 74.202899 64.309179 123.671497 59.362319l133.565218 220.135265c4.94686 9.89372 14.84058 17.31401 27.207729 19.78744h9.89372c7.42029 0 14.84058-2.47343 22.26087-7.42029l34.628019-22.260869c9.89372-4.94686 17.31401-14.84058 19.787439-27.20773 2.47343-9.89372 0-22.26087-4.946859-32.154589l-148.405798-215.188406z m108.830918 239.922705L766.763285 618.357488h-2.47343s-2.47343 0-2.47343-2.47343l-140.985507-230.028986c-2.47343-4.94686-9.89372-9.89372-14.84058-9.893719h-4.94686c-37.101449 7.42029-76.676329-7.42029-98.937198-42.04831-14.84058-24.7343-19.78744-54.415459-7.42029-81.623188l37.10145 56.888889c2.47343 4.94686 7.42029 7.42029 12.367149 7.42029s9.89372 0 14.84058-2.47343l66.782609-42.048309c9.89372-4.94686 12.36715-17.31401 4.94686-24.7343L593.623188 195.400966c27.207729 2.47343 51.942029 19.78744 66.782609 42.048309 19.78744 32.154589 19.78744 74.202899-4.94686 106.357488-4.94686 7.42029-4.94686 14.84058 0 22.26087l148.405797 225.082125v2.47343s0 2.47343-2.47343 2.47343z" fill="#ffffff" p-id="10523"></path><path d="M939.903382 0H128.618357C56.888889 0 0 56.888889 0 128.618357v576.309179c0 71.729469 56.888889 128.618357 128.618357 128.618358H939.903382c71.729469 0 128.618357-56.888889 128.618357-128.618358V128.618357C1068.521739 56.888889 1011.63285 0 939.903382 0z m56.888889 704.927536c0 32.154589-24.7343 56.888889-56.888889 56.888889H128.618357c-32.154589 0-56.888889-24.7343-56.888888-56.888889V128.618357c0-32.154589 24.7343-56.888889 56.888888-56.888888H939.903382c32.154589 0 56.888889 24.7343 56.888889 56.888888v576.309179zM905.275362 949.797101h-202.821256v-19.787439c0-17.31401-14.84058-32.154589-32.154589-32.15459H378.434783c-17.31401 0-32.154589 14.84058-32.15459 32.15459v19.787439H143.458937c-19.78744 0-37.101449 17.31401-37.101449 37.10145s17.31401 37.101449 37.101449 37.101449h761.816425c19.78744 0 37.101449-17.31401 37.10145-37.101449s-17.31401-37.101449-37.10145-37.10145z" fill="#ffffff" p-id="10524"></path><path d="M591.149758 494.68599l-195.400966-9.893719h-98.937198l7.42029 12.367149-9.89372 19.78744 19.78744 138.512077c0 4.94686 0 12.36715-4.94686 14.84058l-24.7343 27.207729v2.47343-2.47343l-2.47343 2.47343v-2.47343l-27.207729-27.207729c-4.94686-4.94686-4.94686-9.89372-4.94686-14.84058l19.78744-138.512077-9.89372-19.78744 7.42029-12.367149H183.033816c-7.42029 0-12.36715 4.94686-12.367149 9.893719 0 0-46.995169 173.140097-42.04831 225.082126l2.47343 2.47343c12.36715 9.89372 44.521739 34.628019 44.52174 34.628019l2.47343 2.47343h205.294686l-4.94686-173.140096c0-7.42029 4.94686-14.84058 14.840579-14.84058l165.719807-2.47343c7.42029 0 12.36715-2.47343 14.84058-9.89372l27.207729-46.995169c2.47343-7.42029-2.47343-17.31401-9.89372-17.31401zM262.183575 460.057971c61.835749 14.84058 113.777778-29.681159 113.777778-89.043478 0-49.468599-42.048309-91.516908-91.516909-91.516908-59.362319 0-103.884058 56.888889-86.570048 116.251207 7.42029 32.154589 32.154589 56.888889 64.309179 64.309179z" fill="#ffffff" p-id="10525"></path></svg>