<svg t="1707306298002" class="icon" viewBox="0 0 1024 1024" version="1.1" xmlns="http://www.w3.org/2000/svg" p-id="4648" width="200" height="200"><path d="M461.7692 543.04c-149.44 0-270.96-121.6-270.96-270.96S312.4092 1.12 461.7692 1.12c149.44 0 270.96 121.6 270.96 270.96S611.2092 543.04 461.7692 543.04z m0-445.84c-96.4 0-174.88 78.48-174.88 174.88s78.48 174.88 174.88 174.88 174.88-78.48 174.88-174.88-78.4-174.88-174.88-174.88zM973.6892 1022.88H597.2892c-26.56 0-48.08-21.52-48.08-48.08s21.52-48.08 48.08-48.08h376.4c26.56 0 48.08 21.52 48.08 48.08s-21.52 48.08-48.08 48.08zM973.6892 868.08H597.2892c-26.56 0-48.08-21.52-48.08-48.08s21.52-48.08 48.08-48.08h376.4c26.56 0 48.08 21.52 48.08 48.08s-21.52 48.08-48.08 48.08zM973.6892 713.36H597.2892c-26.56 0-48.08-21.52-48.08-48.08s21.52-48.08 48.08-48.08h376.4c26.56 0 48.08 21.52 48.08 48.08s-21.52 48.08-48.08 48.08z" fill="#1296db" p-id="4649"></path><path d="M461.7692 1022.88H129.1292c-51.44 0-81.52-19.84-97.68-36.56-30-30.96-31.6-68.48-31.44-78.08 0.24-254.4 207.28-461.36 461.76-461.36h89.36c73.12 0 143.12 16.64 207.92 49.36a48.04 48.04 0 0 1 21.2 64.56 48.04 48.04 0 0 1-64.56 21.2c-51.28-25.92-106.64-39.04-164.64-39.04H461.7692c-201.6 0-365.68 164-365.68 365.68v0.24c0.24 5.12 1.28 17.84 33.04 17.84h332.64c26.56 0 48.08 21.52 48.08 48.08s-21.52 48.08-48.08 48.08z m-365.6-113.84v0z" fill="#1296db" p-id="4650"></path></svg>