<svg t="1707307254739" class="icon" viewBox="0 0 1024 1024" version="1.1" xmlns="http://www.w3.org/2000/svg" p-id="8559" width="200" height="200"><path d="M256.19 891.826l-193.477 0.096-0.68-800.78 534.21-0.487 122.234 137.47 0.266 314.47h-30.546l-0.27-273.38-142.287 0.097v-25.707l-0.15-127.15-454.3 0.39 0.658 747.912 164.342-0.097v27.166z m-95.68-254.887l276.963 300.936 519.922-589.413L453.343 801.96l-87.404-260.824-205.43 95.803z m-5.012-193.943v39.725h468.175v-39.725H155.498z m0-63.67v39.722h468.175v-39.722H155.498z m0-64.065v39.629h468.175V315.26H155.498zM571.219 116.75l0.076 126.76 114.881-0.097L571.22 116.749z" fill="#1296db" p-id="8560"></path></svg>