<svg t="1706424359893" class="icon" viewBox="0 0 1103 1024" version="1.1" xmlns="http://www.w3.org/2000/svg" p-id="5136" width="128" height="128"><path d="M890.436887 1023.989242H642.35818a53.789833 53.789833 0 0 1-53.789833-53.789832V711.70699h-73.369331v258.49242a53.789833 53.789833 0 0 1-53.789833 53.789832H216.235127a53.789833 53.789833 0 0 1-53.789833-53.789832v-362.543472H53.789833a53.789833 53.789833 0 0 1-37.265596-92.518512l520.470419-500.159378A53.789833 53.789833 0 0 1 613.204091 16.71008l475.728036 500.041041A53.789833 53.789833 0 0 1 1049.977531 607.612907h-105.750811v362.543471a53.789833 53.789833 0 0 1-53.789833 53.832864z m-194.288875-107.579665h140.499043v-362.543471a53.789833 53.789833 0 0 1 53.789832-53.789833h34.12427L572.549735 130.023742l-385.135201 370.009499H216.235127a53.789833 53.789833 0 0 1 53.789832 53.789833v362.543471h137.594392V657.917158a53.789833 53.789833 0 0 1 53.789832-53.789833h180.948997a53.789833 53.789833 0 0 1 53.789832 53.789833z" p-id="5137" ></path></svg>