<svg t="1706425140615" class="icon" viewBox="0 0 1024 1024" version="1.1" xmlns="http://www.w3.org/2000/svg" p-id="7267" width="128" height="128"><path d="M262.08 254.848c0 0-0.768 81.984-14.016 105.472C234.816 383.936 166.08 425.152 166.08 425.152S105.792 464.512 85.12 463.68C64.832 462.912 68.672 374.912 68.8 372.096c0-2.752-1.024-86.528 19.776-112.384 21.12-26.24 81.344-60.288 81.344-60.288s68.8-42.752 81.536-35.072C264.064 172.032 262.08 254.848 262.08 254.848zM482.56 23.296c-12.672-7.68-81.472 35.072-81.472 35.072s-60.16 34.048-81.28 60.288c-20.8 25.792-19.84 109.632-19.776 112.32-0.128 2.88-4.032 90.88 16.256 91.648 20.672 0.832 81.024-38.592 81.024-38.592s68.736-41.216 81.984-64.768 13.888-105.472 13.888-105.472S495.296 30.976 482.56 23.296zM246.912 429.248c-12.736-7.68-81.472 35.072-81.472 35.072s-60.16 34.048-81.344 60.288C63.296 550.528 64.32 634.24 64.384 636.992c-0.128 2.816-3.968 90.88 16.256 91.648 20.736 0.768 81.024-38.592 81.024-38.592s68.8-41.28 81.984-64.768c13.248-23.552 13.952-105.472 13.952-105.472S259.648 436.992 246.912 429.248zM478.144 288.256C465.408 280.512 396.608 323.264 396.608 323.264s-60.16 34.112-81.344 60.288C294.592 409.344 295.552 493.184 295.552 495.936c-0.064 2.816-3.968 90.88 16.32 91.648 20.672 0.768 80.96-38.656 80.96-38.656s68.736-41.216 81.984-64.768c13.312-23.488 13.952-105.408 13.952-105.408S490.816 295.936 478.144 288.256zM761.92 254.848c0 0 0.768 81.984 13.952 105.472 13.248 23.552 82.048 64.768 82.048 64.768s60.224 39.36 80.96 38.592c20.288-0.768 16.448-88.768 16.32-91.584 0-2.752 1.088-86.528-19.776-112.384-21.12-26.24-81.344-60.288-81.344-60.288s-68.8-42.752-81.472-35.072C759.872 172.032 761.92 254.848 761.92 254.848zM541.44 23.296c12.672-7.68 81.472 35.072 81.472 35.072s60.16 34.048 81.344 60.288c20.736 25.792 19.776 109.632 19.776 112.32 0.064 2.88 3.968 90.88-16.32 91.648-20.672 0.832-80.96-38.592-80.96-38.592S557.952 242.88 544.768 219.328C531.456 195.776 530.752 113.792 530.752 113.792S528.704 30.976 541.44 23.296zM777.088 429.248c12.736-7.68 81.472 35.072 81.472 35.072s60.16 34.048 81.344 60.288c20.8 25.856 19.84 109.632 19.776 112.384 0.128 2.816 3.968 90.88-16.256 91.648-20.736 0.768-81.024-38.592-81.024-38.592s-68.8-41.28-81.984-64.768c-13.248-23.552-14.016-105.472-14.016-105.472S764.352 436.992 777.088 429.248zM545.856 288.256c12.672-7.744 81.472 35.008 81.472 35.008s60.16 34.112 81.344 60.288c20.672 25.792 19.712 109.632 19.712 112.384 0.064 2.816 3.968 90.88-16.32 91.648-20.608 0.768-80.96-38.656-80.96-38.656S562.432 507.776 549.184 484.16c-13.248-23.488-14.08-105.408-14.08-105.408S533.184 295.936 545.856 288.256zM415.616 703.744c0 0 71.872 39.488 98.816 39.488 27.072 0 96.64-39.808 96.64-39.808s63.872-33.28 73.344-51.648c9.344-18.112-69.376-57.792-71.872-59.136C610.112 591.296 537.536 549.44 504.896 554.88c-33.28 5.568-92.416 41.344-92.416 41.344s-70.976 39.04-70.528 53.888C342.464 665.024 415.616 703.744 415.616 703.744zM105.728 782.656c-0.512-14.848 70.528-53.888 70.528-53.888s59.2-35.84 92.352-41.344c32.768-5.44 105.28 36.48 107.648 37.824 2.496 1.344 81.216 41.024 71.936 59.072-9.472 18.432-73.344 51.712-73.344 51.712s-69.632 39.808-96.64 39.808c-27.072 0-98.816-39.488-98.816-39.488S106.24 797.504 105.728 782.656zM575.04 776c-0.448-14.848 70.592-53.888 70.592-53.888s59.2-35.904 92.352-41.344c32.704-5.504 105.28 36.416 107.584 37.824 2.624 1.28 81.28 41.024 71.936 59.072-9.408 18.368-73.344 51.648-73.344 51.648s-69.568 39.872-96.64 39.872c-26.944 0-98.816-39.488-98.816-39.488S575.552 790.784 575.04 776zM338.88 908.48c-0.512-14.848 70.464-53.952 70.464-53.952s59.264-35.776 92.48-41.344c32.704-5.504 105.216 36.416 107.584 37.76 2.56 1.344 81.216 41.088 71.936 59.136C671.872 928.576 608 961.792 608 961.792S538.368 1001.6 511.36 1001.6s-98.816-39.488-98.816-39.488S339.392 923.392 338.88 908.48z"  p-id="7268"></path></svg>