<svg t="1706455437380" class="icon" viewBox="0 0 1024 1024" version="1.1" xmlns="http://www.w3.org/2000/svg" p-id="17627" width="128" height="128"><path d="M448 480a224 224 0 1 1 224-224 224 224 0 0 1-224 224z m0-384a160 160 0 1 0 160 160A160 160 0 0 0 448 96z" fill="#ffffff" p-id="17628"></path><path d="M704 960H64a32.64 32.64 0 0 1-32-30.08V896c0-264.96 186.88-480 416-480a384 384 0 0 1 289.92 135.68 32 32 0 0 1 0 44.8 32 32 0 0 1-45.44 0A320 320 0 0 0 448 480C256 480 96 666.88 96 896h608a32 32 0 0 1 0 64z m128-32a30.08 30.08 0 0 1-22.4-9.6 30.72 30.72 0 0 1 0-44.8L914.56 768 809.6 662.4a31.36 31.36 0 0 1 44.8-44.8l128 128a30.72 30.72 0 0 1 0 44.8l-128 128A30.08 30.08 0 0 1 832 928z" fill="#ffffff" p-id="17629"></path><path d="M960 800H576a32 32 0 0 1 0-64h384a32 32 0 0 1 0 64z" fill="#ffffff" p-id="17630"></path></svg>