<svg t="1706511175868" class="icon" viewBox="0 0 1024 1024" version="1.1" xmlns="http://www.w3.org/2000/svg" p-id="6096" width="128" height="128"><path d="M923.378813 305.414945l-141.483338-0.514723L940.653245 147.093103c17.34504-17.545608 17.34504-45.962821 0-63.456241-17.450441-17.493419-45.684482-17.493419-63.045895 0L717.313597 243.092527 718.395232 98.782817c0.418532-18.11252-13.872962-33.870412-31.898501-33.44267l-22.806425 0c-18.008142 0.470721-32.927947 11.236925-33.29429 29.350468l-0.942465 250.378467c0 0.322341 1.169639 0.558725 1.169639 0.889253l-1.744737 16.420995c-0.140193 9.029654 1.989307 17.161868 7.818059 22.946618 5.740748 5.879917 13.837146 9.405207 22.806425 9.179057l16.280802-0.331551c0.366344 0 0.610914-0.140193 0.942465-0.192382l250.700809 1.413186c18.025539-0.418532 32.875758-15.381315 33.346479-33.529651l0-23.006993C958.050474 317.507354 941.35114 304.996412 923.378813 305.414945L923.378813 305.414945zM959.07992 687.11225l-0.052189-22.998807c-0.418532-18.148335-15.233959-33.102932-33.154098-33.538861l-249.393024 1.360997c-0.36532 0-0.610914-0.140193-0.942465-0.140193l-16.210193-0.36532c-8.951883-0.279363-16.996093 3.298116-22.720468 9.125845-5.792936 5.827729-7.90504 13.960966-7.730055 23.034623l1.744737 16.419971c0 0.331551-1.169639 0.576121-1.169639 0.890276l0.942465 248.449535c0.366344 18.11252 15.181771 28.879748 33.154098 29.315676l24.185842 0.034792c17.921161 0.435928 32.125675-15.373129 31.688723-33.486672l-1.029446-141.396357 159.64907 158.479431c17.257036 17.48421 45.3867 17.48421 62.696947 0 17.310248-17.502629 17.310248-45.910633 0-63.448054L781.284561 719.621665l140.540873-0.523933C939.711803 719.568453 956.357925 708.470697 959.07992 687.11225L959.07992 687.11225zM385.61094 640.590704c-5.740748-5.827729-13.837146-9.405207-22.807449-9.108448l-16.33299 0.366344c-0.278339 0-0.557702 0.140193-0.87288 0.140193l-247.367901-1.414209c-17.97335 0.436952-32.893154 15.390525-33.311687 33.538861l-0.052189 22.998807c2.721994 21.358447 19.438725 32.422434 37.412075 32.089859l139.494031 0.505513L81.722768 878.884948c-17.415648 17.554818-17.415648 45.962821 0 63.448054 17.379832 17.502629 45.560662 17.502629 62.958914 0l160.311149-159.403476-1.082658 140.540873c-0.435928 18.11252 13.872962 33.869389 31.846312 33.450856l22.859637 0c18.008142-0.471744 32.910551-11.203156 33.29429-29.351492l0.942465-246.670006c0-0.315178-1.169639-0.558725-1.169639-0.890276l1.780553-16.419971C393.549749 654.568043 391.456065 646.436852 385.61094 640.590704L385.61094 640.590704zM392.817062 345.070106l-0.941442-250.378467c-0.348947-18.113543-15.199167-28.92375-33.120328-29.394471l-24.184819 0c-17.903765-0.38374-32.107255 15.373129-31.688723 33.44267l1.081635 143.315056L144.367527 83.636862c-17.362436-17.493419-45.438888-17.493419-62.749136 0-17.310248 17.493419-17.310248 45.909609 0 63.456241l158.042479 157.807119-139.232065 0.514723c-17.86795-0.418532-34.480302 12.092409-37.202297 33.443693l0.034792 23.006993c0.435928 18.147312 15.251356 33.110095 33.172517 33.529651l249.374604-1.413186c0.348947 0.052189 0.576121 0.192382 0.907673 0.192382l16.228613 0.37453c8.933463 0.23536 17.030885-3.288906 22.719444-9.169847 5.792936-5.836939 7.887644-13.96813 7.712659-23.050995l-1.779529-16.410762C391.596258 345.584829 392.817062 345.392448 392.817062 345.070106L392.817062 345.070106zM392.817062 345.070106" fill="#ffffff" p-id="6097"></path></svg>