<svg t="1706443920507" class="icon" viewBox="0 0 1024 1024" version="1.1" xmlns="http://www.w3.org/2000/svg" p-id="14082" width="128" height="128"><path d="M928 64H672a32 32 0 0 0-32 32v327l-106.74-94.92a32 32 0 0 0-42.52 0L384 423V96a32 32 0 0 0-32-32H96a32 32 0 0 0-32 32v832a32 32 0 0 0 32 32h91.5a127.86 127.86 0 0 0 83.34-30.85l1.05-0.9L512 714.81l239.46 212.86a127.88 127.88 0 0 0 85 32.33H928a32 32 0 0 0 32-32V96a32 32 0 0 0-32-32z m-96 64h64v696.74l-58.55-52a987.37 987.37 0 0 1-222.34-286.27l163.63 145.45A32 32 0 0 0 832 608z m-128 0h64v408.74l-64-56.89zM187.5 896H128V128h64v764.37c0 1.16 0 2.32 0.13 3.46-1.54 0.11-3.08 0.17-4.63 0.17z m303.29-248h-0.05L256 856.74V128h64v526.22a32 32 0 0 0 53.21 24h0.05l96-85.36q13.88 25.59 29.08 50.27a31.86 31.86 0 0 0-7.56 5zM836.5 896a63.92 63.92 0 0 1-42.5-16.17l-55.75-49.53A987.52 987.52 0 0 1 510 532.5l-2.64-5.27a32 32 0 0 0-42.93-14.31 31.46 31.46 0 0 0-7 4.77L384 583v-74.41l118.05-104.93L552 503.53a1051.24 1051.24 0 0 0 242.94 317L879.83 896z" fill="#1296db" p-id="14083"></path></svg>