<svg width="32" height="32" viewBox="0 0 32 32" fill="none" xmlns="http://www.w3.org/2000/svg">
<path d="M16 15C16.55 15 17.021 14.804 17.413 14.412C17.8043 14.0207 18 13.55 18 13C18 12.45 17.8043 11.979 17.413 11.587C17.021 11.1957 16.55 11 16 11C15.45 11 14.9793 11.1957 14.588 11.587C14.196 11.979 14 12.45 14 13C14 13.55 14.196 14.0207 14.588 14.412C14.9793 14.804 15.45 15 16 15ZM16 17C14.9 17 13.9583 16.6083 13.175 15.825C12.3917 15.0417 12 14.1 12 13C12 11.9 12.3917 10.9583 13.175 10.175C13.9583 9.39167 14.9 9 16 9C17.1 9 18.0417 9.39167 18.825 10.175C19.6083 10.9583 20 11.9 20 13C20 14.1 19.6083 15.0417 18.825 15.825C18.0417 16.6083 17.1 17 16 17ZM16 28C14.35 28 12.796 27.6873 11.338 27.062C9.87933 26.4373 8.60433 25.5793 7.513 24.488C6.421 23.396 5.56267 22.121 4.938 20.663C4.31267 19.2043 4 17.65 4 16C4 14.35 4.31267 12.7957 4.938 11.337C5.56267 9.879 6.421 8.604 7.513 7.512C8.60433 6.42067 9.87933 5.56267 11.338 4.938C12.796 4.31267 14.35 4 16 4C17.65 4 19.2043 4.31267 20.663 4.938C22.121 5.56267 23.396 6.42067 24.488 7.512C25.5793 8.604 26.4373 9.879 27.062 11.337C27.6873 12.7957 28 14.35 28 16C28 17.65 27.6873 19.2043 27.062 20.663C26.4373 22.121 25.5793 23.396 24.488 24.488C23.396 25.5793 22.121 26.4373 20.663 27.062C19.2043 27.6873 17.65 28 16 28ZM16 26C17.2 26 18.325 25.8083 19.375 25.425C20.425 25.0417 21.3833 24.5 22.25 23.8C21.7 23.1833 20.8917 22.646 19.825 22.188C18.7583 21.7293 17.4833 21.5 16 21.5C14.5167 21.5 13.2417 21.7293 12.175 22.188C11.1083 22.646 10.3 23.1833 9.75 23.8C10.6167 24.5 11.575 25.0417 12.625 25.425C13.675 25.8083 14.8 26 16 26ZM8.3 22.4C9.1 21.5333 10.175 20.8333 11.525 20.3C12.875 19.7667 14.3667 19.5 16 19.5C17.6333 19.5 19.121 19.7667 20.463 20.3C21.8043 20.8333 22.875 21.5333 23.675 22.4C24.4083 21.5167 24.9793 20.5333 25.388 19.45C25.796 18.3667 26 17.2167 26 16C26 14.6167 25.7373 13.321 25.212 12.113C24.6873 10.9043 23.9707 9.846 23.062 8.938C22.154 8.02933 21.0957 7.31233 19.887 6.787C18.679 6.26233 17.3833 6 16 6C14.6333 6 13.3417 6.26233 12.125 6.787C10.9083 7.31233 9.846 8.02933 8.938 8.938C8.02933 9.846 7.31267 10.9043 6.788 12.113C6.26267 13.321 6 14.6167 6 16C6 17.2167 6.2 18.371 6.6 19.463C7 20.5543 7.56667 21.5333 8.3 22.4Z" fill="#333333"/>
</svg>
