<svg t="1706370291379" class="icon" viewBox="0 0 1057 1024" version="1.1" xmlns="http://www.w3.org/2000/svg" p-id="2851" width="128" height="128"><path d="M310.985497 253.162529v61.638194L251.045161 330.322581l8.809704 64.822503-50.100026 29.203819L231.225806 482.270968l-36.335483 43.6224L229.574194 573.109677l-26.425807 52.03902 46.245161 31.499561L241.135484 718.451613l57.806451 27.671122 4.954839 52.290065 63.517729 11.597626 440.967432-26.739613 137.097084-37.148078L931.509677 681.05249l49.548388-24.404232-23.122581-62.480516 37.987097-35.638503-37.987097-53.277729 24.774193-52.712878-44.593548-48.706064 7.36289-47.374865L891.672774 327.019355l-8.059871-48.722581L813.419355 264.258065 374.916129 248.762632l-63.930632 4.399897z" fill="#D33833" p-id="2852"></path><path d="M604.619148 140.905703l48.322891 41.194529 58.932851-23.641187 35.740904 51.655845 63.504516-8.106116 20.727742 58.599226 63.748954 7.983897 4.297497 61.5424 59.652955 23.53218-12.423432 60.297084 51.484077 37.471794-28.298735 54.942555 39.81378 48.858013-42.241651 45.842167 25.424929 56.917884-53.310761 33.616929 9.30849 61.096465-60.746323 19.105858-7.445471 61.109677-64.039638 3.28671-23.694039 56.964129-62.969394-12.753755-38.324025 48.933987-57.608259-27.925471-50.344464 37.564284-48.32289-41.194529-58.929549 23.64449-35.744206-51.655845-63.504516 8.102813-20.724439-58.595922-63.752258-7.983897-4.297497-61.545703-59.649652-23.528878 12.423433-60.297084-51.487381-37.471793 28.298736-54.942555-39.813781-48.858013 42.244955-45.842168-25.428232-56.917884 53.310761-33.620232-9.305187-61.096464 60.743019-19.102555 7.448774-61.112981 64.039639-3.28671 23.690735-56.964129 62.969394 12.753755 38.324026-48.930684 57.611561 27.925471 50.341161-37.567587z m-0.538425 20.945755l-47.698581 35.595561-54.585807-26.462142-36.312361 46.364078-59.666168-12.0832-22.448722 53.97471-60.676955 3.111638-7.05569 57.905549-57.55871 18.101677 8.819613 57.889032-50.512929 31.853007 24.093729 53.931767-40.02849 43.43742 37.722838 46.29471-26.812284 52.055535 48.785342 35.506374-11.772696 57.132594 56.521496 22.293471 4.072878 58.315148 60.402787 7.564387 19.637677 55.52062 60.171562-7.676697 33.867974 48.943897 55.837729-22.402478L584.670968 918.049032l47.701884-35.592258 54.582503 26.458839 36.312361-46.364078 59.666168 12.0832 22.448722-53.971406 60.676955-3.114942 7.055691-57.905548 57.558709-18.101678-8.819613-57.889032 50.512929-31.853006-24.090425-53.928465 40.025187-43.437419-37.722839-46.29471 26.812284-52.058839-48.785342-35.503071 11.772697-57.132593-56.521497-22.296774-4.069574-58.311846-60.406091-7.56769-19.637677-55.520619-60.171561 7.68-33.864671-48.943897-55.841033 22.399174-45.786012-39.030916z" fill="#231F20" p-id="2853"></path><path d="M501.44289 860.229368l-29.07169-89.018633-97.821729 25.203613 13.288877-91.403561-80.661471-13.265755 20.437058-45.412748-75.221058-81.632619 84.186013-51.071175-66.219767-55.160567 82.237109-18.34942-45.419355-83.6608 154.174762 30.845523 20.912722-123.355665 81.1008 57.459613 61.776929-72.644542 48.801858 81.923303 89.543846-43.136825 8.066477 92.226064 101.828542-6.167122-34.062865 86.580851 96.503742 31.862916-58.2656 66.47742 62.460697 63.87778-79.872 49.383226L875.354839 721.2032l-100.543587 40.051613 6.140696 69.265342-92.255793-41.15489-43.500181 82.930787-66.404748-71.247278z" fill="#F0DC00" p-id="2854"></path><path d="M164.061316 681.05249l-30.83231 19.77311 2.203252 17.80769 49.548387 7.501626 72.670968 11.967587 53.333884 7.901316L303.896774 718.63329l-139.835458-37.5808z" fill="#9C9A99" p-id="2855"></path><path d="M423.912877 536.222555L357.788903 475.664516 323.716129 409.6l-12.730632-44.04191-18.098374-14.31618-61.661317 9.909677-16.516129 33.993497-60.558038 8.687484L109.006452 440.118503l-30.829007 36.645987 6.606452 73.919587L46.245161 594.167742l-16.516129 55.474374 15.416155 16.509523 99.096774 11.270606 97.993497 14.322787 60.561342 26.888258 121.116077-182.410735z" fill="#FFFFFF" p-id="2856"></path><path d="M299.493574 712.3968l-106.806503-31.34431L69.367742 660.916026l-35.23551 5.235613L29.729032 605.725729l73.770942 10.877523 69.367742 19.968L251.045161 671.790245l48.448413 19.954787v20.651768zM81.480671 505.25151l51.748335-10.051716 73.774246 10.055019L247.741935 542.829006 275.267716 578.064516 211.406452 545.032258l-83.68062-13.212903-36.335484 13.212903-9.909677-39.780748zM260.954839 361.151587l-6.606452 26.151639L266.461316 429.419355l-53.95489-25.586787L227.922581 361.151587h33.032258z" fill="#DCD9D8" p-id="2857"></path><path d="M492.662916 558.529239c21.979665 1.773832 74.170632 4.525419 111.199794 1.773832 22.541213 28.605935 112.73249 181.601445 107.173161 200.951742C671.215484 759.467768 624.309677 731.334194 594.0224 703.587097" fill="#81B0C4" p-id="2858"></path><path d="M745.914632 545.164387l-55.058167 8.258065-74.322581 8.258064-48.174245 1.374142-46.793497-1.374142-35.787148-11.012955-31.654813-34.4064-24.774194-70.193548-5.506477-15.141987-33.032258-11.006349-19.27102-31.658116-13.761238-45.419355 15.141987-39.91618 35.780542-12.387097 28.906529 13.767845 13.764542 30.277368 16.516129-2.75489 5.503174-6.877317-5.503174-31.658116-1.377446-39.91618 8.258065-55.051562-0.323716-31.446709 25.097909-40.120981 44.04191-31.658116 77.077471-33.032258 85.332232 12.387097 74.322581 53.677419 34.409703 55.051561 22.019303 39.916181 5.506478 99.096774-16.516129 85.335536-30.280671 75.696722-28.903226 39.916181" fill="#F0D6B7" p-id="2859"></path><path d="M699.114529 783.26751l-196.819406 8.258064v33.032258L548.335484 938.994787l-37.782297 10.814761-137.632206-46.800103-9.63551-16.516129-30.759639-154.277161-14.656413-94.838916-6.883922-22.019304 110.106426-75.696722 34.409703-13.767845 30.277368 37.16129 26.151638 23.400052 60.558039 85.328929 12.387097 15.141987 13.668748 27.231793 115.708697 60.852026-15.138684 8.258065" fill="#1B4F9A" p-id="2860"></path><path d="M685.356594 395.145084s3.207432-41.719742 14.445006-38.51231c11.234271 3.207432 11.234271 14.441703 11.234271 14.441703s-27.284645 17.652439-25.679277 24.070607" fill="#F7E4CD" p-id="2861"></path><path d="M485.778994 563.054658L367.414503 611.096774s-22.779045 2.203252-37.091922 14.051923c-11.009652 18.980335 1.099974 83.944877 9.909677 112.570632 8.809703 28.629058 37.435458 148.645161 75.974194 179.057961l-52.920981-23.396748-22.227406-87.892232-48.170942-113.743278 8.8064-86.019303 144.172593-81.2032 39.912878 38.532129" fill="#0A7ABE" p-id="2862"></path><path d="M499.081084 681.05249l18.356026 22.395871v82.580645h-22.022607s-2.751587-57.806452-2.751587-64.690374c0-6.883923 2.751587-31.658116 2.751587-31.658116M499.543535 798.416103l-61.935483 2.748284 17.893574 12.387097 44.041909 6.880619" fill="#317BBE" p-id="2863"></path><path d="M725.262865 784.648258l77.07747-4.129032s31.654813-79.825755 31.654813-83.954787 27.525781-115.612903 27.525781-115.612904l-61.935484-64.68707-12.387097-11.009652-33.032258 33.032258v128l-28.903225 118.361187" fill="#1B4F9A" p-id="2864"></path><path d="M761.050013 534.154735l96.341884 71.570994 2.75489-33.032258-72.948439-67.441961-26.148335 28.903225" fill="#317BBE" p-id="2865"></path><path d="M786.828387 656.648258c-4.624516 35.707871-35.014194 86.577548-61.565522 111.682065 15.326968-27.747097 9.387768-218.012903 15.326967-223.298065 5.9392-5.285161 32.123871-20.509729 32.123871-20.509729S796.077419 608.454194 786.828387 656.648258z" fill="#81B0C4" p-id="2866"></path><path d="M722.101677 773.651819l-30.277367-77.074167-31.658116-45.419355s6.880619-19.271019 16.516129-19.27102h31.658116l30.277367 11.012955-2.751587 50.922529-13.764542 79.829058" fill="#FFFFFF" p-id="2867"></path><path d="M728.017755 747.486968s-38.538735-74.319277-38.538736-85.328929c0 0 6.877316-16.516129 16.516129-12.387097 9.63551 4.129032 30.280671 15.135381 30.280671 15.135381v-26.148336l-46.7968-9.638813-31.654813 4.129032 53.67742 126.625859 11.009651 1.380748" fill="#DCD9D8" p-id="2868"></path><path d="M774.811252 640.825806c-23.350503-0.687071-45.300439-3.729342-63.775381-8.938529 1.255226-7.574297 1.952206-18.990245 3.838348-24.443871 14.834787-7.828645 3.927535-7.508232-3.838348-5.595664-0.181677-5.255432-5.400774-12.922219-6.827768-17.034736 13.127019-4.687277 51.226426-36.021677 68.664155-25.847741 8.307613 4.839226 15.478916 33.319639 16.123045 46.760464 0.535123 11.148387-4.892077 28.533265-9.434013 34.439432M671.215484 599.865806c1.668129 25.900594 3.877987 33.204026 3.702916 37.656775-13.364852 9.149935-32.890219 22.468542-48.626787 31.050322-7.438865 4.056361-30.40289 17.701987-38.317419 15.855484-4.479174-1.040516-11.422555-6.652697-13.212904-11.891613-3.815226-11.217755-13.767845-33.983587-14.534193-50.869677-0.974452-21.332232-1.185858-67.095123 21.80129-62.701832 18.54431 3.537755 36.510555 11.25409 50.869678 19.099251 8.773368 4.796284 24.344774 15.079226 37.656774 16.103226" fill="#D33833" p-id="2869"></path><path d="M678.608103 623.847226c-2.041394-11.620748-4.399897-14.933884-3.484903-25.071484 30.987561-20.661677 36.804542 35.489858 3.484903 25.071484" fill="#D33833" p-id="2870"></path><path d="M723.475819 633.264723s-9.63551-13.764542-2.751587-17.893575c6.880619-4.129032 13.764542 0.003303 17.893574-6.880619s0-11.012955 1.374142-19.271019c1.377445-8.258065 8.261368-9.63551 15.141987-11.009652 6.880619-1.377445 26.151639-4.129032 28.903226 2.751587l-8.258064-24.774193-16.516129-5.503175-52.303278 30.277368-2.751587 15.141987v30.277368M578.95969 678.684077c-1.651613-21.477574-3.402323-42.928723-5.347922-64.386477-2.913445-32.04129 7.696516-26.452232 35.470038-26.452232 4.241342 0 26.12191 5.060542 27.684336 8.258064 7.508232 15.333574-12.552258 11.924645 8.647845 23.485936 17.893574 9.757729 49.505445-5.925987 42.277987-27.614968-4.049755-4.82271-21.08449-1.502968-27.192155-4.667458l-32.256-16.724232c-13.681961-7.098632-45.300439-17.444335-59.88418-7.528052-36.95649 25.134245 2.332077 87.931871 15.515251 114.152877" fill="#EF3D3A" p-id="2871"></path><path d="M720.103226 566.347974c-9.797368 6.395045-15.032981 11.491923-24.443871 18.322994-20.866477 1.030606-34.353548-3.557574-49.68382-15.541678 0.251045-0.961239 1.810168-4.892077 1.869626-6.074632 22.339716 9.955923 58.698323-2.510452 81.256052-4.525419" fill="#DCD9D8" p-id="2872"></path><path d="M594.957213 427.539819c1.810168-2.411355 11.769394-6.074632 25.705703 0.637523 0 0-16.516129 2.75489-15.141987 30.290581l-6.880619-1.380749s-7.115148-24.965781-3.683097-29.547355" fill="#F7E4CD" p-id="2873"></path><path d="M834.622761 248.762632l-118.027561 33.517833h-122.5728l-69.285161 32.708541 11.257393 48.64s8.221729 47.219613 16.892697 69.516388c8.670968 22.296774 33.858065 60.283871 45.832258 71.019354s35.096774 25.6 47.070968 27.664517 45.538271-1.01409 64-5.780646c25.6-6.606452 29.715819-9.083871 41.290322-15.690322 11.574503-6.606452 35.509677-25.6 35.509678-25.6l-50.304826 62.619251-55.220026 15.67711-117.766606 3.293316-60.994065-11.112051-33.05538-23.406658s-20.119948-22.580852-31.631691-50.648362c-12.572077-30.650632-10.292852-64.918297-12.591896-60.122013-4.406503 9.182968-46.592-14.065135-46.592-14.065135l-20.645162-75.703329 15.485523-36.480826-1.099974-66.018271 22.828593-61.159226 31.122994-42.386993 84.783896-49.455897 59.477884-22.115097L657.341935 54.833548l63.781988 16.327846 53.584929 36.464309 43.401083 57.842787 16.512826 83.294142z" fill="#1B4F9A" p-id="2874"></path><path d="M401.672258 286.72s-4.624516-35.674839 0.660645-67.385806c9.909677-32.021471 17.916697-40.900542 29.768671-55.609807C443.953548 149.015123 459.670297 133.866529 478.967742 118.916129c19.614555-15.194839 28.407742-20.48 64.617703-39.8336 33.491406-13.212903 74.266426-20.945755 74.266426-20.945755l-61.879329 3.930839L463.772903 103.060645l-59.127742 55.00862-25.434838 38.845935L367.414503 264.258065l16.545858 29.035354 17.711897-6.573419zM437.485832 323.716129s-48.022297-21.200103-53.525471 9.083871c-5.503174 30.277368-13.797574 51.335432 12.357368 82.990245l-17.893574-5.506477-16.516129-42.664465-5.503174-41.290322 31.654813-33.035562 35.783845 2.754891 13.642322 11.977496M432.101574 421.293419l18.0224-17.460851s8.132542 0.944723 9.506684 10.576929c1.374142 9.638813 5.503174 96.34849 64.687071 143.14529 5.397471 4.271071-44.04191-6.887226-44.04191-6.887226l-44.045213-68.8128" fill="#317BBE" p-id="2875"></path><path d="M811.354839 654.864516l-13.212904 12.8-3.920929 13.387974 0.617704 9.321704 25.6-12.387097 9.496774-9.909678-1.23871-11.35649-7.019355-3.303226-10.32258 1.446813z" fill="#FFFFFF" p-id="2876"></path><path d="M734.346735 726.134916l38.525523 121.258116s-23.945084 20.199226-32.282426 17.391484c-8.337342-2.807742-55.758452-126.682013-55.758451-126.682013l49.515354-11.967587z" fill="#1B4F9A" p-id="2877"></path><path d="M729.930323 718.63329l13.909883 32.216362s-25.025239 27.856103-44.243406 23.509058l-14.765419-36.256207 45.098942-19.469213z" fill="#317BBE" p-id="2878"></path><path d="M684.831381 738.102503s27.654606 81.592981 51.444438 122.057497c21.348748 6.371923 49.855587 8.205213 68.703794-2.599639 27.968413-18.54431 33.329548-25.553755 38.393393-32.520258 17.847329-6.969806 61.162529-18.23711 73.272155-19.053006 10.24 1.32129 22.131613 5.285161 23.373626 39.374451-11.812335 51.133935-134.692335 65.668129-272.843148 111.979355-65.988542 12.155871-124.026219-3.290013-138.36222-26.947716-14.336-23.657703-31.654813-80.4864-31.654813-80.4864l-11.379612-56.306787 13.764541-7.570994 106.816413-31.182451 78.471433-16.744052z" fill="#FFFFFF" p-id="2879"></path><path d="M492.662916 810.010426l14.382245 5.060542s45.871897 84.506426 86.977239 110.932232c34.465858 9.427406 150.564335-19.033187 194.972903-28.625755 71.151484-8.809703 136.723819-39.63871 151.023484-59.458064 23.363716 30.918194-58.88991 66.064516-165.207535 78.857909-66.751587 33.032258-161.831639 54.153084-180.788852 51.067871-63.854658 4.129032-101.359484-157.834735-101.359484-157.834735z" fill="#DCD9D8" p-id="2880"></path><path d="M881.85889 660.916026l43.860233 73.678451-5.050633 48.924078-98.459251 26.624s-57.859303 31.628387-60.250839 38.033342c-0.640826-60.22111-38.558555-121.225084-38.558555-121.225084l26.61409-11.181419 22.795562-0.650736 37.025858-28.992413 40.203561-22.646916 31.819974-2.563303z" fill="#FFFFFF" p-id="2881"></path><path d="M899.230555 700.8256l23.994632 39.916181 6.510658 23.94178-14.646503 36.900336-23.082942 10.550503-40.669316 7.263794-23.690736 5.641909-33.425342 16.456671-27.641393 6.679123-5.5296-23.135794s49.115665-23.994632 55.134142-23.182038c0 0-32.764697-84.48-43.913084-89.279588 0.607794-4.228129 2.318865-4.819406 5.760826-7.0656 3.924232-1.030606 6.903742-1.360929 10.841187-0.855535 0 0 37.052284 85.679071 38.773264 93.758761 0 0 64.924903-21.966452 71.656878-23.400051 0 0 10.8544-42.747045-0.072671-74.190452z" fill="#DCD9D8" p-id="2882"></path><path d="M843.373006 825.040103c-3.171097 6.457806-8.007019 15.77951-13.437522 20.1728-36.728568 21.067974-55.124232 27.083148-70.632878 23.535484-35.070348-8.020232 52.471742-35.84 57.195355-37.927639l26.875045-5.780645z" fill="#9C9A99" p-id="2883"></path><path d="M638.285626 46.852955l15.356697 0.990968c36.295845 3.042271 70.580026 13.127019 100.735174 33.600412 22.101884 16.714323 57.423277 52.005987 70.058116 77.556439 33.37249 67.455174 31.000774 180.190968 7.660181 262.2464-3.138065 11.016258-7.686606 27.211974-14.042013 40.444697-4.429626 9.239123-18.200774 27.730581-16.529342 35.889548 1.720981 8.436439 31.397161 30.967742 37.759174 37.101833 11.45889 11.055897 33.227148 25.725523 34.991071 39.671742 1.896052 14.844697-6.540387 35.152929-10.814761 49.475716a1688.572697 1688.572697 0 0 1-8.301007 27.416774c5.995355-1.598761 12.225239-1.337806 18.372542-1.605368 12.162477 1.129703 20.47009 7.610632 28.463897 16.109832 10.996439 14.520981 25.675974 39.896361 33.137961 55.712207 10.53729 22.309987 13.047742 63.920723-9.414193 76.948645 36.619561 39.506581 26.997265 75.693419-18.432 105.571097-58.88991 8.8064-63.914116 12.793394-123.249962 24.222555-51.854039 15.762994-68.406503 21.603097-109.118761 40.144103-17.355148 11.587716-37.141471 19.964697-58.443974 17.289084-17.077677-2.147097-31.701058-10.3424-46.159278-18.996852l-7.019354 1.496361c-45.544877 4.868955-136.376981-31.080052-171.103794-47.143638-12.023742-5.572542-25.444748-12.948645-29.937135-22.518091-4.356955-9.265548-19.109161-51.794581-24.500026-67.716129-13.212903-39.0144-7.128361-14.841394-18.44191-58.711535-4.29089-12.68769-1.351019-5.12-9.916284-22.247226-41.541368-8.327432-83.211561-15.819148-125.515974-18.689652-38.538735 0-48.448413 1.103277-61.661316-12.479587-9.909677-22.752619 25.940232-36.788026 25.940232-36.788025-13.807484-2.573213-27.717368-4.545239-41.643768-6.365317-58.126865-7.442168-77.460645-2.394839-77.460645-2.394838s-8.472774 1.777135-10.411768-46.033755c11.406039-40.124284 59.213626-78.319484 59.213626-78.319484-43.685161-73.367948 21.101006-111.358348 21.101007-111.358348 26.244129-23.717161 42.48609-51.741729 107.8272-48.45502 2.424568-19.360206 6.210065-31.902555 34.043045-40.292748 9.751123-3.356077 20.179406-3.336258 30.366555-3.610426h-0.003304l5.298375 0.412903c12.268181 1.050426 23.509058 5.869832 34.495587 11.029471 14.312877 15.706839 24.529755 63.6928 44.596851 97.534349 22.412387 24.529755 42.789987 51.143845 68.495691 72.446348 5.351226-3.534452 12.208723-6.160516 15.921548-11.676903 5.291768-10.755303-9.080568-25.920413-12.922219-34.353549-6.077935-13.331819-9.245729-24.658581-10.117781-37.812025-21.973058-3.474994-38.627923-16.549161-48.689548-31.294762-16.641652-24.404232-28.186426-69.549419-13.784362-103.889755 1.129703-2.705342 6.761703-8.023535 7.590813-12.178993 1.938994 0.075974-3.085213-19.053006-3.375896-27.753703C357.187716 222.842219 373.264516 181.016774 393.083871 155.251613c24.443871-34.353548 47.566452-47.566452 77.956129-64.743226 14.7456-8.690787 43.936206-21.305806 61.44-27.747097 21.295897-7.686606 54.404129-13.824 76.968465-15.363303 19.221471-0.594581 9.605781-0.416206 28.843767-0.538426l-0.006606-0.006606zM681.055794 743.225806c-21.570065 3.438658-34.056258 8.337342-54.575897 11.861884l-0.003303-0.006606c-46.776981 9.605781-92.004748 25.306013-136.122633 43.364748 27.598452 83.713652 63.643252 138.018684 127.49791 158.895071 63.203923 0 63.203923-18.346116 133.182761-40.563613 76.611716-21.603097 53.191845-19.399845 123.51422-28.209548 68.498994-16.27169 61.915665-82.745806 37.967277-78.557316-10.735484 6.299252-37.967277 12.4928-59.870968 15.029677L829.935484 829.109677s-58.632258 23.535484-73.955923 35.218994c16.413729 9.883252 33.405523 0.11231 45.4656-5.489961l17.754839-5.780645c-10.818065 10.322581-36.497342 21.860748-52.042323 22.154735-21.996181-1.208981-43.559639-17.034735-52.904464-30.247639-9.344826-13.212903-33.197419-101.739355-33.197419-101.739355z m-231.311691-204.036954c-45.799226 18.071948-108.411871 54.97889-131.534451 66.536877-25.547148 15.224568-15.792723 56.026013-7.224155 101.157987 8.637935 45.498632 46.803406 137.140026 65.681342 177.85889 48.861316 21.857445 99.248723 43.126916 152.490116 51.375071-25.1904-37.065497-32.549987-81.738323-44.86111-123.907303-0.369961-4.234735-0.056155-1.370839-1.364232-8.532232-0.459148-5.480052-0.429419-2.820955-0.161858-7.980594-8.842735-6.831071-18.23711-12.733935-28.576207-16.962064-0.11231-16.073497 21.414813 7.088723 23.122581-3.722736 1.284955-8.175484-15.650684-12.307819-11.56129-25.18049 10.428284 3.7888 8.902194 8.277884 20.024155 11.422555 6.883923-22.326503 3.587303-45.075819 5.053935-63.656465 0.763045-5.341316 0.749832-12.91231 5.793858-16.350967 1.532697-0.485574 0.743226-0.313806 2.368413-0.508697l1.390658 0.310503c6.916955 2.460903-0.393084 42.126039 0.366658 59.712413 0.465755 10.623174 0.683768 21.764955 6.259613 31.202271 35.714477-12.661265 72.135845-23.340594 108.788439-32.926555-11.326761-7.481806-21.39169-16.734142-31.532594-25.709006-14.682839-15.250994-16.938942-23.367019-37.77569-50.985291-15.911639-21.517213-48.11809-69.82689-64.218013-88.909625-3.742555-2.665703-29.055174-35.602168-32.523561-34.234633l-0.006607-0.009909z m275.393239 194.259406c-10.015381 2.24289-14.73569 0.416206-24.030968 5.902865 7.352981 36.913548 19.822658 88.932748 38.472671 115.358554 8.426529 11.937858 8.872465 4.423019 21.470968-2.477419-0.482271-26.498477-14.83809-82.019097-30.21791-111.549935l-5.694761-7.234065z m51.239639-17.094193l-12.743846 4.238038c-12.261574 3.154581-19.944877 6.573419-28.43747 8.882374 17.067768 34.502194 36.153806 110.482994 36.107561 114.499717-0.046245 4.016723 38.290994-15.5648 46.245161-18.934091-5.450323-27.74049-25.79489-87.727071-41.168103-108.682735l-0.003303-0.003303z m81.738322-53.895433c-5.229006 2.685523-15.227871 5.371045-18.521187 8.168878-19.512155 15.416155-45.736465 27.066632-57.770116 42.294503 13.467252 21.190194 35.988645 77.952826 45.376413 107.51009 48.154426-3.709523 60.987458-13.186477 75.495226-20.16289 19.931665-9.585961 27.65791-38.148955 16.139561-63.332748-7.732852-16.929032-21.893781-48.887742-31.839794-58.648775-5.92929-5.410684-12.872671-14.339303-20.98209-14.983432l-7.898013-0.845626z m14.587045 109.307045c7.805523-0.356748 15.521858-0.075974 23.182039 1.374142-18.996852 4.485781-42.796594 9.163148-61.261626 11.508439 8.750245-11.267303 25.216826-11.554684 38.079587-12.882581z m-1.853109-25.761858c8.20191 0.3072 4.783071 0.033032 10.279638 0.574762-16.59871 5.413987-35.958916 12.416826-53.482529 14.676232 8.082994-14.497858 28.830555-14.497858 43.202891-15.250994z m-3.802013-41.670193h0.003303-0.003303c-19.244594 8.661058-29.48129 30.459045-50.863071 35.017497 8.991381-20.69471 30.498684-29.355768 50.863071-35.017497z m-698.59262-18.574039c0.003303 0-36.325574 9.929497-29.719122 27.737187 15.416155 12.479587 33.032258-1.099974 59.458064 5.136516 35.090168 4.740129 69.883045 11.386219 104.477729 18.891149-5.073755-9.192877-2.302348-3.871381-8.056567-16.09662-40.566916-16.611923-83.574916-25.9072-126.1568-35.668232h-0.003304z m488.715562-27.165729c-47.424413 32.331974-44.626581 30.746426-49.251097 32.57311-5.060542 1.192465-10.154116 2.2528-15.330271 2.758193l11.270606 12.955252c12.776877 9.496774 26.670245 17.351845 40.811355 24.609032l4.654245-1.215587c14.808361-1.509574 30.023019-1.549213 44.385446-5.896258-9.202787-23.476026-22.085368-45.201342-36.533678-65.777135l-0.006606-0.006607z m46.373987-24.027664c-8.545445-0.91169-15.802632 9.84031-26.92129 5.189367-2.55009 2.817652-4.865652 5.866529-7.461988 8.618116 17.318813 21.325626 27.661213 47.037935 38.558555 71.977291l2.143794-0.554942c11.799123-2.678916 4.736826-1.146219 21.216619-4.406503 2.6624-22.267045 3.032361-44.73889 4.016723-67.128155-13.985858 0.888568-21.741832-12.648052-31.545807-13.688568l-0.006606-0.006606z m12.0832 57.178838a7.570994 7.570994 0 1 1 0.003303 15.138684 7.570994 7.570994 0 0 1-0.003303-15.138684z m-7.56769-35.096774a7.570994 7.570994 0 1 1 0 15.14529 7.570994 7.570994 0 0 1 0-15.14529z m74.24-10.372129l-10.292852 2.830865c-23.505755-0.8192-19.237987-2.1504-26.273858 0.455845-0.459148 21.312413-2.8672 42.515819-5.400774 63.666374 7.607329-1.747406 15.178323-3.47169 22.09858-7.442168 8.400103-15.241084 13.771148-31.780335 18.45182-48.44511 0.918297-6.424774 0.422813-2.741677 1.42369-11.062503l-0.006606-0.003303zM269.411097 358.043252c-14.124594 0.654039-26.607484 6.345497-38.343845 13.797574-14.715871 20.559277-5.176155 32.794426-5.176155 32.794426s49.819252 20.625342 76.912309 55.570167c20.810323 32.117265 13.470555 34.614503 13.470555 34.614504s-18.408877-21.510606-45.442477-46.198917c-38.072981-28.592723-82.85151-41.901419-82.85151-41.904722 0 0.003303-49.227974-3.032361-75.293729 36.457703-50.915923 24.443871-20.116645 95.747303-20.116645 95.747303 11.918039-7.207639 16.902606-15.108955 52.82849-20.975484 40.064826 2.44769 64.832413 22.115097 84.552671 34.446039-30.501987-5.096877-80.915819-28.351587-123.867664-8.621419-23.697342 10.018684-23.862503 14.283148-52.369342 47.966142-29.190606 50.625239-14.170839 67.128155-14.170839 67.128155s74.12769-1.664826 157.468078 21.266167c30.753032 8.135845 61.397058 16.489703 91.720671 26.102091L287.380645 701.383845c-4.482477-17.933213-13.212903-44.735587-2.203251-88.083819 8.809703-40.741987 55.583381-35.691355 71.227458-46.952052 24.186219-17.411303 23.588335-14.012284 49.782916-29.725729 2.239587-1.337806 4.532026-2.589729 6.811251-3.861471-22.997058-20.770684-44.626581-42.932026-65.727587-65.598761C327.7824 434.314735 317.109677 387.303226 304.996748 366.658065c-12.393703-7.237368-21.533729-8.30431-35.582348-8.614813z m516.119122 161.184206c-4.029935 5.070452-1.668129 2.480723-7.277006 7.594116 6.434684 7.980594 8.727123 18.537703 10.55711 28.37471 9.827097 18.491458 9.939406 56.214297 4.396593 76.086503-2.533574 18.42209-5.64191 36.850787-11.131871 54.665084l-3.636851 10.051716 4.680671-2.9696 0.066064-0.19489 1.909265-4.446142s6.048206-10.583535 8.918709-18.24702c2.870503-7.663484 10.322581-14.864516 20.645162-19.819354 10.900645-1.44351 14.656413 1.859716 14.656412 1.859716 5.308284 4.465961 5.308284 4.465961 7.227458 6.811251l1.483149-0.872051c4.274374-13.179871 7.28031-26.749523 10.520774-40.213471 1.529394-7.617239 5.691458-24.215948 4.756645-30.994168-1.664826-12.139355-18.13471-21.140645-26.51169-28.648877-15.435974-13.863639-25.154065-26.065755-41.253987-39.030916l-0.006607-0.006607zM819.2 656.648258c-10.818065 4.267768-13.295484 7.088723-17.837419 15.141987-2.272619 8.251458-5.080361 12.803303-5.080362 12.803303 18.260232-12.806606 18.121497-14.570529 31.364129-22.296774-0.227923-4.432929-4.558452-4.389987-8.446348-5.648516z m-238.222039-90.30689c-2.14049 0.597884-4.502297 0.663948-6.424774 1.777135-13.378065 7.736155-9.936103 39.021006-9.407587 51.285884 0.766348 16.88609 9.549626 34.746632 13.364852 45.964387 1.790348 5.238916 2.193342 10.798245 6.672516 11.835458 7.914529 1.846503 34.026529-8.594994 41.468697-12.654658 15.736568-8.578477 27.94529-22.204284 41.310141-31.354219 0.175071-4.452748 0.343535-8.89889 0.52191-13.348336-8.036748-4.006813-17.322116-6.847587-29.117935-7.36289 8.000413-4.026632 19.77311-3.967174 27.066632-8.756852 0.069368-1.783742 0.142039-3.564181 0.2048-5.331406-13.312-1.024-18.385755-6.95329-27.159123-11.752877-14.359123-7.845161-35.929187-16.387303-54.473496-19.925059l-4.026633-0.376567z m-78.646503-4.614607c30.667148 50.704516 38.779871 57.9584 44.02209 67.392413 4.872258 7.432258 10.167329 14.596955 15.350091 21.817807-5.906168-20.281806-3.042271-9.400981-8.353858-32.708542-1.506271-11.115355-1.952206-19.677316-1.711071-26.95102 2.044697-24.15649 2.166916-17.503794 2.024877-20.430451-9.434013-1.450116-8.59169-1.099974-11.27391-1.370839l-0.376567 0.033032c0.003303 0.003303-27.826374-0.574761-39.675045-7.775793l-0.006607-0.006607z m258.018271-1.232103c-19.508852 3.313135-33.019045 19.419665-50.526142 27.093058 1.426994 4.115819 3.785497 7.3728 3.967174 12.628232 7.765884-1.912568 17.223019-0.601187 23.951691 2.705342-7.7824 0.872052-16.410426 0.812594-21.560155 4.522116-1.886142 5.453626 0.462452 12.885884-0.792774 20.456878 18.471639 5.21249 39.572645 7.9872 62.926451 8.670968 4.541935-5.902865 6.091148-17.150348 5.552723-28.298736-0.644129-13.440826-4.175277-41.078916-12.482891-45.918142-5.760826-2.434477-2.183432-1.380748-11.029471-1.853109l-0.006606-0.006607z m-71.300129 33.666477c-4.7104 0.095794-8.710606 2.24289-12.621626 4.614607-0.91169 10.1376 1.44351 13.450735 3.484903 25.071484 22.458632 9.764335 32.896826-26.230916 9.143329-29.679484l-0.006606-0.006607z m33.365884-32.824154c-22.551123 2.024877-50.945652 16.033858-73.285368 6.077935-0.056155 1.182555-1.598761 0.753135-1.849806 1.714374 15.330271 11.9808 26.719794 14.458219 47.586271 13.427613 9.41089-6.831071 17.754839-14.814968 27.555509-21.210013l-0.006606-0.009909zM627.120723 60.729806c-29.487897 2.464206-16.912516 0.845626-37.825239 4.01342-42.28129 7.267097-57.476129 16.516129-77.956129 25.104516-20.48 8.588387-58.044284 26.290374-83.24129 52.039019-18.405574 16.532645-33.692903 38.469368-45.584517 73.483562-8.588387 25.765161-1.899355 46.862865 0.300594 73.536412 14.890942-8.875768 26.891561-7.980594 42.641342-0.2048 3.759071 2.394839 7.141574 5.565935 7.267097 8.588388-11.865187 5.116697-11.531561 4.479174-16.512826 3.600516-28.04769-3.068697-48.554116 20.146374-49.829161 44.401961-1.509574 28.529961 21.910297 75.809032 55.104412 72.528929 12.823123-1.268439 15.971097-14.12129 29.943742-13.989161 7.570994 15.105652-11.680206 19.852387-13.662142 30.657238-0.515303 2.791226 1.598761 13.698477 2.827562 18.815175 6.028387 24.909626 19.469213 57.14911 32.698632 76.116232 16.790297 24.05409 49.77631 27.681032 85.266168 30.036232 6.335587-13.652232 29.68609-12.529135 44.900748-8.958348-18.233806-7.220852-39.011097-19.287535-53.059716-34.782968-16.136258-17.781265-28.453987-27.136-29.279794-50.374194 30.495381 42.304413 55.484284 64.095794 110.938839 82.702865 41.957574 14.071742 90.960929-6.447897 123.200413-29.088206 13.378065-9.41089 21.361961-24.341471 30.871948-38.006917 28.269006-41.567794 42.618219-90.861832 47.137033-140.57538-14.124594-6.480929-29.847948-5.371045-44.993239-5.489962-3.465084 0.00991-6.966503-0.145342-10.421677 0.165162l5.265342 5.945806c4.849135 5.301677 12.829729 10.388645 13.718296 13.896671 2.56 10.193755-6.659303 22.405781-5.592361 29.187303-26.911381 17.285781-56.921187 36.087742-101.019252 31.727484-9.424103-8.192-13.01471-26.422503-3.861471-38.462761 4.766555 8.192 1.770529 23.258013 15.049497 25.524026 25.021935 4.284284 54.146477-15.303845 72.142452-22.151432 11.1616-18.815174-0.961239-25.735432-11.016258-37.845059-10.210271-12.284697-4.935019-5.807071-15.78942-19.462606l-6.160516-5.12991s-16.265084 9.837006-26.336619 16.341058c-9.374555 6.054813-17.933213 13.539923-17.933213 13.539923s-29.312826 3.564181-47.259252 6.504052c-14.83809 2.431174-31.780335 6.048206-55.038348 11.994013-21.831019 5.579148-57.248206 20.645161-57.248206 20.645161l-13.060955-48.943897s-3.2768-27.624877-2.464207-48.336103 6.560206-65.450116 6.560207-65.450116 12.552258 1.981935 92.853677 18.213987c23.082942 4.4032 74.950194 8.872465 104.599949 10.791638 5.562632-0.426116 9.63551 0.062761 18.577341-1.258529 33.038865-6.295948 56.858426-21.8112 81.797781-43.688464-2.157006-8.938529-3.742555-18.164439-7.676697-26.541419-1.635097-5.215794-8.010323-18.250323-13.295484-26.178065-5.285161-7.927742-21.352052-28.619148-23.12258-30.389677-18.498065-18.498065-31.608568-25.50751-42.941936-33.692904-23.783226-17.176774-50.869677-24.443871-73.331613-29.068387-13.966039-1.232103-5.496568-0.554942-25.431535-1.813471l-12.717419-0.218013z m0.687071 379.388697c16.212232 40.705652 71.937652 36.021677 118.932645 34.898581-2.071123 5.285161-6.5536 11.528258-12.129445 13.784361-15.056103 6.130787-56.590865 10.778426-77.496981-0.323716-13.259148-7.049084-21.774865-22.973935-29.038658-32.308852-3.508026-4.512206-20.978787-16.027252-0.267561-16.050374z m4.456051-22.990451c23.446297 12.327639 66.536877 13.652232 98.4064 12.720722 1.707768 6.983019 1.668129 15.607742 1.734194 24.120155-40.966606 2.044697-89.398503-8.092903-100.140594-36.840877z m176.11809-15.459097c-12.529135 23.842684-30.247639 50.103329-67.009238 50.869677-0.749832-7.703123-1.32129-19.419665 0.039638-24.057393 28.103845-2.698735 45.452387-17.001703 66.9696-26.812284z m-38.17538 131.6864a53.66751 53.66751 0 0 0-10.5472 9.827097c4.508903-1.460026 5.12-1.932387 10.728877-2.044697 1.01409-0.019819 1.988542 0.406297 2.982813 0.607793-2.599639-7.392619-1.347716-4.683974-3.161187-8.38689l-0.003303-0.003303z" fill="#231F20" p-id="2884"></path><path d="M681.055794 305.87871v-9.909678l-23.231588-7.267097L625.630968 284.077419l-7.779097 3.963871L640.825806 311.329032l26.353136 3.471691 13.876852-8.922013zM813.254194 284.077419l-1.321291-11.230967-22.9376 7.267096-14.184051 9.249033 3.428748 9.909677 15.855484 3.963871 19.15871-19.15871z" fill="#FFFFFF" p-id="2885"></path><path d="M747.903174 153.966658l13.533316 2.520361 5.143123 11.79582-18.514581 3.088516 12.443252 22.613884 0.928206 11.333367-8.4992 11.37631-24.936051 7.141574-23.149007 0.617704-18.157832-7.405833-9.810581-15.432671 6.788129-6.788129 17.903484-3.009238 3.851562 10.028593 9.714787 3.47169h16.443458l5.413987-11.574503-13.820697-20.443664-29.29631 5.400774-12.922219 3.47169-10.867613-6.480929-2.916748-7.409135 19.518761-6.170426 61.208774-8.145755z" fill="#DCD9D8" p-id="2886"></path><path d="M744.325781 156.487019l14.392154 1.744104 5.450323 7.739458-20.869781 4.58818 12.182297 21.332233 2.804439 11.112051-5.727794 11.188026-28.609238 7.329858-23.145704-0.383174-14.108077-7.716336-5.202581-14.778632 6.966504-4.512206h10.415071l3.858167 11.188025 12.41022 3.471691 21.857445-3.471691 3.478297-10.028593-15.99422-23.730374-27.951897 3.600516-15.039587 4.9152-6.005264-4.370168-2.583123-6.5536 17.269265-5.460232 54.153084-7.204336z" fill="#FFFFFF" p-id="2887"></path></svg>